<svg width="28" height="36" viewBox="0 0 28 36" fill="none" xmlns="http://www.w3.org/2000/svg">
<path d="M14 18.8462C12.3154 18.8462 10.8942 18.2673 9.73655 17.1096C8.57885 15.9519 8.00001 14.5308 8.00001 12.8462C8.00001 11.1615 8.57885 9.74039 9.73655 8.5827C10.8942 7.42501 12.3154 6.84616 14 6.84616C15.6846 6.84616 17.1058 7.42501 18.2635 8.5827C19.4212 9.74039 20 11.1615 20 12.8462C20 14.5308 19.4212 15.9519 18.2635 17.1096C17.1058 18.2673 15.6846 18.8462 14 18.8462ZM14 16.8462C15.1231 16.8462 16.0705 16.4603 16.8423 15.6885C17.6141 14.9167 18 13.9692 18 12.8462C18 11.7231 17.6141 10.7757 16.8423 10.0039C16.0705 9.23207 15.1231 8.84617 14 8.84617C12.8769 8.84617 11.9295 9.23207 11.1577 10.0039C10.3859 10.7757 10 11.7231 10 12.8462C10 13.9692 10.3859 14.9167 11.1577 15.6885C11.9295 16.4603 12.8769 16.8462 14 16.8462ZM14 35.7693C9.98206 34.577 6.64424 32.143 3.98654 28.4673C1.32885 24.7917 0 20.6513 0 16.0462V5.23077L14 0L28 5.23077V16.0462C28 20.6513 26.6712 24.7917 24.0135 28.4673C21.3558 32.143 18.018 34.577 14 35.7693ZM14 2.13463L2.00001 6.59617V16.0462C2.00001 18.0513 2.29488 19.9808 2.88463 21.8346C3.47437 23.6885 4.30514 25.4039 5.37693 26.9808C6.67437 26.3064 8.03206 25.7821 9.45001 25.4077C10.868 25.0333 12.3846 24.8462 14 24.8462C15.6154 24.8462 17.1321 25.0333 18.55 25.4077C19.968 25.7821 21.3257 26.3064 22.6231 26.9808C23.6949 25.4039 24.5257 23.6885 25.1154 21.8346C25.7051 19.9808 26 18.0513 26 16.0462V6.59617L14 2.13463ZM14 26.8462C12.6205 26.8462 11.3064 26.9923 10.0577 27.2846C8.80899 27.5769 7.64232 27.9949 6.55771 28.5385C7.57566 29.7436 8.70899 30.7833 9.95771 31.6577C11.2064 32.5321 12.5539 33.1949 14 33.6462C15.4462 33.1949 16.7872 32.5321 18.0231 31.6577C19.259 30.7833 20.3859 29.7436 21.4039 28.5385C20.3192 27.9949 19.159 27.5769 17.9231 27.2846C16.6872 26.9923 15.3795 26.8462 14 26.8462Z" fill="white"/>
</svg>
