<svg width="12" height="10" viewBox="0 0 12 10" fill="none" xmlns="http://www.w3.org/2000/svg">
<path d="M1.725 9.084V1.533H0V0.144H3.36V9.084H1.725ZM5.04 9.084V7.854L7.464 5.313C7.94 4.813 8.308 4.4125 8.568 4.1115C8.828 3.8105 9.0115 3.552 9.1185 3.336C9.2255 3.12 9.279 2.901 9.279 2.679C9.279 2.299 9.1605 2.0025 8.9235 1.7895C8.6865 1.5765 8.383 1.47 8.013 1.47C7.633 1.47 7.3015 1.5785 7.0185 1.7955C6.7355 2.0125 6.533 2.333 6.411 2.757L4.977 2.313C5.075 1.843 5.272 1.435 5.568 1.089C5.864 0.743 6.225 0.475 6.651 0.285C7.077 0.095 7.53 0 8.01 0C8.588 0 9.095 0.105 9.531 0.315C9.967 0.525 10.3065 0.818 10.5495 1.194C10.7925 1.57 10.914 2.008 10.914 2.508C10.914 2.832 10.8545 3.1485 10.7355 3.4575C10.6165 3.7665 10.4365 4.0845 10.1955 4.4115C9.9545 4.7385 9.644 5.1 9.264 5.496L7.158 7.704H11.037V9.084H5.04Z" fill="#3E4945"/>
</svg>
