<svg width="23" height="23" viewBox="0 0 23 23" fill="none" xmlns="http://www.w3.org/2000/svg">
<path d="M17.5 9.33333L15.8083 7.7L17.675 5.83333H11.6667V3.5H17.675L15.8667 1.69167L17.5 0L22.1667 4.725L17.5 9.33333ZM19.775 22.1667C17.3444 22.1667 14.9431 21.6368 12.5708 20.5771C10.1986 19.5174 8.04028 18.0153 6.09583 16.0708C4.15139 14.1264 2.64931 11.9681 1.58958 9.59583C0.529861 7.22361 0 4.82222 0 2.39167C0 2.04167 0.116667 1.75 0.35 1.51667C0.583333 1.28333 0.875 1.16667 1.225 1.16667H5.95C6.22222 1.16667 6.46528 1.25903 6.67917 1.44375C6.89306 1.62847 7.01944 1.84722 7.05833 2.1L7.81667 6.18333C7.85556 6.49444 7.84583 6.75694 7.7875 6.97083C7.72917 7.18472 7.62222 7.36944 7.46667 7.525L4.6375 10.3833C5.02639 11.1028 5.48819 11.7979 6.02292 12.4688C6.55764 13.1396 7.14583 13.7861 7.7875 14.4083C8.39028 15.0111 9.02222 15.5701 9.68333 16.0854C10.3444 16.6007 11.0444 17.0722 11.7833 17.5L14.525 14.7583C14.7 14.5833 14.9285 14.4521 15.2104 14.3646C15.4924 14.2771 15.7694 14.2528 16.0417 14.2917L20.0667 15.1083C20.3389 15.1861 20.5625 15.3271 20.7375 15.5312C20.9125 15.7354 21 15.9639 21 16.2167V20.9417C21 21.2917 20.8833 21.5833 20.65 21.8167C20.4167 22.05 20.125 22.1667 19.775 22.1667ZM3.52917 8.16667L5.45417 6.24167L4.95833 3.5H2.3625C2.45972 4.29722 2.59583 5.08472 2.77083 5.8625C2.94583 6.64028 3.19861 7.40833 3.52917 8.16667ZM13.9708 18.6083C14.7292 18.9389 15.5021 19.2014 16.2896 19.3958C17.0771 19.5903 17.8694 19.7167 18.6667 19.775V17.2083L15.925 16.6542L13.9708 18.6083Z" fill="#3E4946"/>
</svg>
