<svg width="11" height="9" viewBox="0 0 11 9" fill="none" xmlns="http://www.w3.org/2000/svg">
<path d="M8.51667 4.08333L0.291667 1.10833L0.7 0L9.8 3.325C9.99444 3.40278 10.1597 3.53889 10.2958 3.73333C10.4319 3.92778 10.5 4.14167 10.5 4.375V7.58333C10.5 7.90417 10.3858 8.17882 10.1573 8.40729C9.92882 8.63576 9.65417 8.75 9.33333 8.75H1.16667C0.845833 8.75 0.571181 8.63576 0.342708 8.40729C0.114236 8.17882 0 7.90417 0 7.58333V5.25C0 4.92917 0.114236 4.65451 0.342708 4.42604C0.571181 4.19757 0.845833 4.08333 1.16667 4.08333H8.51667ZM9.33333 7.58333V5.25H1.16667V7.58333H9.33333ZM4.08333 7H8.75V5.83333H4.08333V7ZM2.33333 7C2.49861 7 2.63715 6.9441 2.74896 6.83229C2.86076 6.72049 2.91667 6.58194 2.91667 6.41667C2.91667 6.25139 2.86076 6.11285 2.74896 6.00104C2.63715 5.88924 2.49861 5.83333 2.33333 5.83333C2.16806 5.83333 2.02951 5.88924 1.91771 6.00104C1.8059 6.11285 1.75 6.25139 1.75 6.41667C1.75 6.58194 1.8059 6.72049 1.91771 6.83229C2.02951 6.9441 2.16806 7 2.33333 7ZM1.16667 7.58333V5.25V7.58333Z" fill="#3E4945"/>
</svg>
