<svg width="24" height="24" viewBox="0 0 24 24" fill="none" xmlns="http://www.w3.org/2000/svg">
<path d="M7 10.5C7.33056 10.5 7.60764 10.3882 7.83125 10.1646C8.05486 9.94097 8.16667 9.66389 8.16667 9.33333C8.16667 9.00278 8.05486 8.72569 7.83125 8.50208C7.60764 8.27847 7.33056 8.16667 7 8.16667C6.66944 8.16667 6.39236 8.27847 6.16875 8.50208C5.94514 8.72569 5.83333 9.00278 5.83333 9.33333C5.83333 9.66389 5.94514 9.94097 6.16875 10.1646C6.39236 10.3882 6.66944 10.5 7 10.5ZM11.6667 10.5C11.9972 10.5 12.2743 10.3882 12.4979 10.1646C12.7215 9.94097 12.8333 9.66389 12.8333 9.33333C12.8333 9.00278 12.7215 8.72569 12.4979 8.50208C12.2743 8.27847 11.9972 8.16667 11.6667 8.16667C11.3361 8.16667 11.059 8.27847 10.8354 8.50208C10.6118 8.72569 10.5 9.00278 10.5 9.33333C10.5 9.66389 10.6118 9.94097 10.8354 10.1646C11.059 10.3882 11.3361 10.5 11.6667 10.5ZM16.3333 10.5C16.6639 10.5 16.941 10.3882 17.1646 10.1646C17.3882 9.94097 17.5 9.66389 17.5 9.33333C17.5 9.00278 17.3882 8.72569 17.1646 8.50208C16.941 8.27847 16.6639 8.16667 16.3333 8.16667C16.0028 8.16667 15.7257 8.27847 15.5021 8.50208C15.2785 8.72569 15.1667 9.00278 15.1667 9.33333C15.1667 9.66389 15.2785 9.94097 15.5021 10.1646C15.7257 10.3882 16.0028 10.5 16.3333 10.5ZM0 23.3333V2.33333C0 1.69167 0.228472 1.14236 0.685417 0.685417C1.14236 0.228472 1.69167 0 2.33333 0H21C21.6417 0 22.191 0.228472 22.6479 0.685417C23.1049 1.14236 23.3333 1.69167 23.3333 2.33333V16.3333C23.3333 16.975 23.1049 17.5243 22.6479 17.9813C22.191 18.4382 21.6417 18.6667 21 18.6667H4.66667L0 23.3333ZM3.675 16.3333H21V2.33333H2.33333V17.6458L3.675 16.3333ZM2.33333 16.3333V2.33333V16.3333Z" fill="#95E8D6"/>
</svg>
