<svg width="10" height="10" viewBox="0 0 10 10" fill="none" xmlns="http://www.w3.org/2000/svg">
<path d="M4.66667 4.66667C4.025 4.66667 3.47569 4.43819 3.01875 3.98125C2.56181 3.52431 2.33333 2.975 2.33333 2.33333C2.33333 1.69167 2.56181 1.14236 3.01875 0.685417C3.47569 0.228472 4.025 0 4.66667 0C5.30833 0 5.85764 0.228472 6.31458 0.685417C6.77153 1.14236 7 1.69167 7 2.33333C7 2.975 6.77153 3.52431 6.31458 3.98125C5.85764 4.43819 5.30833 4.66667 4.66667 4.66667ZM0 9.33333V7.7C0 7.36944 0.0850694 7.06563 0.255208 6.78854C0.425347 6.51146 0.651389 6.3 0.933333 6.15417C1.53611 5.85278 2.14861 5.62674 2.77083 5.47604C3.39306 5.32535 4.025 5.25 4.66667 5.25C5.30833 5.25 5.94028 5.32535 6.5625 5.47604C7.18472 5.62674 7.79722 5.85278 8.4 6.15417C8.68194 6.3 8.90799 6.51146 9.07812 6.78854C9.24826 7.06563 9.33333 7.36944 9.33333 7.7V9.33333H0Z" fill="#284E42"/>
</svg>
