<svg width="27" height="34" viewBox="0 0 27 34" fill="none" xmlns="http://www.w3.org/2000/svg">
<path d="M0 28.3333V25H3.33333V13.3333C3.33333 11.0278 4.02778 8.97917 5.41667 7.1875C6.80556 5.39583 8.61111 4.22222 10.8333 3.66667V2.5C10.8333 1.80556 11.0764 1.21528 11.5625 0.729167C12.0486 0.243056 12.6389 0 13.3333 0C14.0278 0 14.6181 0.243056 15.1042 0.729167C15.5903 1.21528 15.8333 1.80556 15.8333 2.5V3.66667C18.0556 4.22222 19.8611 5.39583 21.25 7.1875C22.6389 8.97917 23.3333 11.0278 23.3333 13.3333V25H26.6667V28.3333H0ZM13.3333 33.3333C12.4167 33.3333 11.6319 33.0069 10.9792 32.3542C10.3264 31.7014 10 30.9167 10 30H16.6667C16.6667 30.9167 16.3403 31.7014 15.6875 32.3542C15.0347 33.0069 14.25 33.3333 13.3333 33.3333Z" fill="#005E4E"/>
</svg>
