<svg width="10" height="12" viewBox="0 0 10 12" fill="none" xmlns="http://www.w3.org/2000/svg">
<path d="M0 9.91667V8.75H1.16667V4.66667C1.16667 3.85972 1.40972 3.14271 1.89583 2.51562C2.38194 1.88854 3.01389 1.47778 3.79167 1.28333V0.875C3.79167 0.631944 3.87674 0.425347 4.04688 0.255208C4.21701 0.0850694 4.42361 0 4.66667 0C4.90972 0 5.11632 0.0850694 5.28646 0.255208C5.4566 0.425347 5.54167 0.631944 5.54167 0.875V1.28333C6.31944 1.47778 6.95139 1.88854 7.4375 2.51562C7.92361 3.14271 8.16667 3.85972 8.16667 4.66667V8.75H9.33333V9.91667H0ZM4.66667 11.6667C4.34583 11.6667 4.07118 11.5524 3.84271 11.324C3.61424 11.0955 3.5 10.8208 3.5 10.5H5.83333C5.83333 10.8208 5.7191 11.0955 5.49062 11.324C5.26215 11.5524 4.9875 11.6667 4.66667 11.6667ZM2.33333 8.75H7V4.66667C7 4.025 6.77153 3.47569 6.31458 3.01875C5.85764 2.56181 5.30833 2.33333 4.66667 2.33333C4.025 2.33333 3.47569 2.56181 3.01875 3.01875C2.56181 3.47569 2.33333 4.025 2.33333 4.66667V8.75Z" fill="white"/>
</svg>
