<svg width="20" height="24" viewBox="0 0 20 24" fill="none" xmlns="http://www.w3.org/2000/svg">
<path d="M7 18.6667C6.35833 18.6667 5.80903 18.4382 5.35208 17.9813C4.89514 17.5243 4.66667 16.975 4.66667 16.3333V2.33333C4.66667 1.69167 4.89514 1.14236 5.35208 0.685417C5.80903 0.228472 6.35833 0 7 0H17.5C18.1417 0 18.691 0.228472 19.1479 0.685417C19.6049 1.14236 19.8333 1.69167 19.8333 2.33333V16.3333C19.8333 16.975 19.6049 17.5243 19.1479 17.9813C18.691 18.4382 18.1417 18.6667 17.5 18.6667H7ZM7 16.3333H17.5V2.33333H7V16.3333ZM2.33333 23.3333C1.69167 23.3333 1.14236 23.1049 0.685417 22.6479C0.228472 22.191 0 21.6417 0 21V4.66667H2.33333V21H15.1667V23.3333H2.33333ZM7 16.3333V2.33333V16.3333Z" fill="#3E4946"/>
</svg>
