<svg width="17" height="17" viewBox="0 0 17 17" fill="none" xmlns="http://www.w3.org/2000/svg">
<path d="M4.16667 9.58333C4.51389 9.58333 4.80903 9.46181 5.05208 9.21875C5.29514 8.97569 5.41667 8.68056 5.41667 8.33333C5.41667 7.98611 5.29514 7.69097 5.05208 7.44792C4.80903 7.20486 4.51389 7.08333 4.16667 7.08333C3.81944 7.08333 3.52431 7.20486 3.28125 7.44792C3.03819 7.69097 2.91667 7.98611 2.91667 8.33333C2.91667 8.68056 3.03819 8.97569 3.28125 9.21875C3.52431 9.46181 3.81944 9.58333 4.16667 9.58333ZM8.33333 9.58333C8.68056 9.58333 8.97569 9.46181 9.21875 9.21875C9.46181 8.97569 9.58333 8.68056 9.58333 8.33333C9.58333 7.98611 9.46181 7.69097 9.21875 7.44792C8.97569 7.20486 8.68056 7.08333 8.33333 7.08333C7.98611 7.08333 7.69097 7.20486 7.44792 7.44792C7.20486 7.69097 7.08333 7.98611 7.08333 8.33333C7.08333 8.68056 7.20486 8.97569 7.44792 9.21875C7.69097 9.46181 7.98611 9.58333 8.33333 9.58333ZM12.5 9.58333C12.8472 9.58333 13.1424 9.46181 13.3854 9.21875C13.6285 8.97569 13.75 8.68056 13.75 8.33333C13.75 7.98611 13.6285 7.69097 13.3854 7.44792C13.1424 7.20486 12.8472 7.08333 12.5 7.08333C12.1528 7.08333 11.8576 7.20486 11.6146 7.44792C11.3715 7.69097 11.25 7.98611 11.25 8.33333C11.25 8.68056 11.3715 8.97569 11.6146 9.21875C11.8576 9.46181 12.1528 9.58333 12.5 9.58333ZM8.33333 16.6667C7.18056 16.6667 6.09722 16.4479 5.08333 16.0104C4.06944 15.5729 3.1875 14.9792 2.4375 14.2292C1.6875 13.4792 1.09375 12.5972 0.65625 11.5833C0.21875 10.5694 0 9.48611 0 8.33333C0 7.18056 0.21875 6.09722 0.65625 5.08333C1.09375 4.06944 1.6875 3.1875 2.4375 2.4375C3.1875 1.6875 4.06944 1.09375 5.08333 0.65625C6.09722 0.21875 7.18056 0 8.33333 0C9.48611 0 10.5694 0.21875 11.5833 0.65625C12.5972 1.09375 13.4792 1.6875 14.2292 2.4375C14.9792 3.1875 15.5729 4.06944 16.0104 5.08333C16.4479 6.09722 16.6667 7.18056 16.6667 8.33333C16.6667 9.48611 16.4479 10.5694 16.0104 11.5833C15.5729 12.5972 14.9792 13.4792 14.2292 14.2292C13.4792 14.9792 12.5972 15.5729 11.5833 16.0104C10.5694 16.4479 9.48611 16.6667 8.33333 16.6667ZM8.33333 15C10.1944 15 11.7708 14.3542 13.0625 13.0625C14.3542 11.7708 15 10.1944 15 8.33333C15 6.47222 14.3542 4.89583 13.0625 3.60417C11.7708 2.3125 10.1944 1.66667 8.33333 1.66667C6.47222 1.66667 4.89583 2.3125 3.60417 3.60417C2.3125 4.89583 1.66667 6.47222 1.66667 8.33333C1.66667 10.1944 2.3125 11.7708 3.60417 13.0625C4.89583 14.3542 6.47222 15 8.33333 15Z" fill="#3B6660"/>
</svg>
