<svg width="40" height="36" viewBox="0 0 40 36" fill="none" xmlns="http://www.w3.org/2000/svg">
<path d="M32 8H8V0H32V8ZM32 19C32.5667 19 33.0417 18.8083 33.425 18.425C33.8083 18.0417 34 17.5667 34 17C34 16.4333 33.8083 15.9583 33.425 15.575C33.0417 15.1917 32.5667 15 32 15C31.4333 15 30.9583 15.1917 30.575 15.575C30.1917 15.9583 30 16.4333 30 17C30 17.5667 30.1917 18.0417 30.575 18.425C30.9583 18.8083 31.4333 19 32 19ZM28 32V24H12V32H28ZM32 36H8V28H0V16C0 14.3 0.583333 12.875 1.75 11.725C2.91667 10.575 4.33333 10 6 10H34C35.7 10 37.125 10.575 38.275 11.725C39.425 12.875 40 14.3 40 16V28H32V36Z" fill="#3E4945"/>
</svg>
