<svg width="15" height="12" viewBox="0 0 15 12" fill="none" xmlns="http://www.w3.org/2000/svg">
<path d="M3 11.25L0 8.25L1.05 7.1625L2.25 8.3625V3C2.25 2.175 2.54375 1.46875 3.13125 0.88125C3.71875 0.29375 4.425 0 5.25 0C6.075 0 6.78125 0.29375 7.36875 0.88125C7.95625 1.46875 8.25 2.175 8.25 3V8.25C8.25 8.6625 8.39688 9.01562 8.69063 9.30937C8.98438 9.60312 9.3375 9.75 9.75 9.75C10.1625 9.75 10.5156 9.60312 10.8094 9.30937C11.1031 9.01562 11.25 8.6625 11.25 8.25V2.8875L10.05 4.0875L9 3L12 0L15 3L13.95 4.0875L12.75 2.8875V8.25C12.75 9.075 12.4562 9.78125 11.8687 10.3687C11.2812 10.9562 10.575 11.25 9.75 11.25C8.925 11.25 8.21875 10.9562 7.63125 10.3687C7.04375 9.78125 6.75 9.075 6.75 8.25V3C6.75 2.5875 6.60312 2.23438 6.30937 1.94062C6.01562 1.64687 5.6625 1.5 5.25 1.5C4.8375 1.5 4.48438 1.64687 4.19063 1.94062C3.89688 2.23438 3.75 2.5875 3.75 3V8.3625L4.95 7.1625L6 8.25L3 11.25Z" fill="#406659"/>
</svg>
