<svg width="19" height="17" viewBox="0 0 19 17" fill="none" xmlns="http://www.w3.org/2000/svg">
<path d="M15.6667 16.5L13.4583 14.3333H4.58333C3.30556 14.3333 2.22222 13.8889 1.33333 13C0.444444 12.1111 0 11.0278 0 9.75C0 8.68056 0.329861 7.72917 0.989583 6.89583C1.64931 6.0625 2.5 5.52778 3.54167 5.29167C3.58333 5.18056 3.625 5.07292 3.66667 4.96875C3.70833 4.86458 3.75 4.75 3.79167 4.625L0.333333 1.16667L1.5 0L16.8333 15.3333L15.6667 16.5ZM4.58333 12.6667H11.7917L5.08333 5.95833C5.05556 6.11111 5.03472 6.25694 5.02083 6.39583C5.00694 6.53472 5 6.68056 5 6.83333H4.58333C3.77778 6.83333 3.09028 7.11806 2.52083 7.6875C1.95139 8.25694 1.66667 8.94444 1.66667 9.75C1.66667 10.5556 1.95139 11.2431 2.52083 11.8125C3.09028 12.3819 3.77778 12.6667 4.58333 12.6667ZM17.1667 13.2917L15.9583 12.125C16.1944 11.9306 16.3715 11.7049 16.4896 11.4479C16.6076 11.191 16.6667 10.9028 16.6667 10.5833C16.6667 10 16.4653 9.50694 16.0625 9.10417C15.6597 8.70139 15.1667 8.5 14.5833 8.5H13.3333V6.83333C13.3333 5.68056 12.9271 4.69792 12.1146 3.88542C11.3021 3.07292 10.3194 2.66667 9.16667 2.66667C8.79167 2.66667 8.43056 2.71181 8.08333 2.80208C7.73611 2.89236 7.40278 3.03472 7.08333 3.22917L5.875 2.02083C6.36111 1.6875 6.87847 1.43403 7.42708 1.26042C7.97569 1.08681 8.55556 1 9.16667 1C10.7917 1 12.1701 1.56597 13.3021 2.69792C14.434 3.82986 15 5.20833 15 6.83333C15.9583 6.94444 16.7535 7.35764 17.3854 8.07292C18.0174 8.78819 18.3333 9.625 18.3333 10.5833C18.3333 11.125 18.2292 11.6285 18.0208 12.0938C17.8125 12.559 17.5278 12.9583 17.1667 13.2917Z" fill="#ED8936"/>
</svg>
