<svg width="16" height="20" viewBox="0 0 16 20" fill="none" xmlns="http://www.w3.org/2000/svg">
<path d="M8 20C5.68333 19.4167 3.77083 18.0875 2.2625 16.0125C0.754167 13.9375 0 11.6333 0 9.1V3L8 0L16 3V9.1C16 11.6333 15.2458 13.9375 13.7375 16.0125C12.2292 18.0875 10.3167 19.4167 8 20ZM8 7.525L2.4 11.875C2.71667 12.925 3.18333 13.8792 3.8 14.7375C4.41667 15.5958 5.15 16.3167 6 16.9V13H10V16.9C10.85 16.3167 11.5833 15.5958 12.2 14.7375C12.8167 13.8792 13.2833 12.925 13.6 11.875L8 7.525ZM8 2.125L2 4.375V9.1C2 9.18333 2.00417 9.275 2.0125 9.375C2.02083 9.475 2.025 9.56667 2.025 9.65L8 5L13.975 9.65C13.975 9.56667 13.9792 9.475 13.9875 9.375C13.9958 9.275 14 9.18333 14 9.1V4.375L8 2.125Z" fill="#006B5D"/>
</svg>
