<svg width="24" height="24" viewBox="0 0 24 24" fill="none" xmlns="http://www.w3.org/2000/svg">
<path d="M11.6667 23.3333C10.0528 23.3333 8.53611 23.0271 7.11667 22.4146C5.69722 21.8021 4.4625 20.9708 3.4125 19.9208C2.3625 18.8708 1.53125 17.6361 0.91875 16.2167C0.30625 14.7972 0 13.2806 0 11.6667C0 10.0528 0.30625 8.53611 0.91875 7.11667C1.53125 5.69722 2.3625 4.4625 3.4125 3.4125C4.4625 2.3625 5.69722 1.53125 7.11667 0.91875C8.53611 0.30625 10.0528 0 11.6667 0C13.2806 0 14.7972 0.30625 16.2167 0.91875C17.6361 1.53125 18.8708 2.3625 19.9208 3.4125C20.9708 4.4625 21.8021 5.69722 22.4146 7.11667C23.0271 8.53611 23.3333 10.0528 23.3333 11.6667V13.3583C23.3333 14.5056 22.9396 15.4826 22.1521 16.2896C21.3646 17.0965 20.3972 17.5 19.25 17.5C18.5694 17.5 17.9278 17.3542 17.325 17.0625C16.7222 16.7708 16.2167 16.3528 15.8083 15.8083C15.2444 16.3722 14.6076 16.7951 13.8979 17.0771C13.1882 17.359 12.4444 17.5 11.6667 17.5C10.0528 17.5 8.67708 16.9312 7.53958 15.7937C6.40208 14.6562 5.83333 13.2806 5.83333 11.6667C5.83333 10.0528 6.40208 8.67708 7.53958 7.53958C8.67708 6.40208 10.0528 5.83333 11.6667 5.83333C13.2806 5.83333 14.6562 6.40208 15.7937 7.53958C16.9312 8.67708 17.5 10.0528 17.5 11.6667V13.3583C17.5 13.8639 17.6653 14.2917 17.9958 14.6417C18.3264 14.9917 18.7444 15.1667 19.25 15.1667C19.7556 15.1667 20.1736 14.9917 20.5042 14.6417C20.8347 14.2917 21 13.8639 21 13.3583V11.6667C21 9.06111 20.0958 6.85417 18.2875 5.04583C16.4792 3.2375 14.2722 2.33333 11.6667 2.33333C9.06111 2.33333 6.85417 3.2375 5.04583 5.04583C3.2375 6.85417 2.33333 9.06111 2.33333 11.6667C2.33333 14.2722 3.2375 16.4792 5.04583 18.2875C6.85417 20.0958 9.06111 21 11.6667 21H17.5V23.3333H11.6667ZM11.6667 15.1667C12.6389 15.1667 13.4653 14.8264 14.1458 14.1458C14.8264 13.4653 15.1667 12.6389 15.1667 11.6667C15.1667 10.6944 14.8264 9.86806 14.1458 9.1875C13.4653 8.50694 12.6389 8.16667 11.6667 8.16667C10.6944 8.16667 9.86806 8.50694 9.1875 9.1875C8.50694 9.86806 8.16667 10.6944 8.16667 11.6667C8.16667 12.6389 8.50694 13.4653 9.1875 14.1458C9.86806 14.8264 10.6944 15.1667 11.6667 15.1667Z" fill="white"/>
</svg>
