<svg width="55" height="55" viewBox="0 0 55 55" fill="none" xmlns="http://www.w3.org/2000/svg">
<path d="M23.4375 39.875L42 21.3125L36.8125 16.0625L23.4375 29.4375L17.0625 23.0625L11.875 28.3125L23.4375 39.875ZM27.125 54.25C23.3333 54.25 19.7919 53.5399 16.5008 52.1198C13.2096 50.6996 10.3468 48.7723 7.91226 46.3377C5.47772 43.9032 3.55037 41.0404 2.13022 37.7492C0.710075 34.4581 0 30.9167 0 27.125C0 23.3333 0.710075 19.7919 2.13022 16.5008C3.55037 13.2096 5.47772 10.3468 7.91226 7.91226C10.3468 5.47772 13.2096 3.55037 16.5008 2.13023C19.7919 0.710075 23.3333 0 27.125 0C30.9167 0 34.4581 0.710075 37.7492 2.13023C41.0404 3.55037 43.9032 5.47772 46.3377 7.91226C48.7723 10.3468 50.6996 13.2096 52.1198 16.5008C53.5399 19.7919 54.25 23.3333 54.25 27.125C54.25 30.9167 53.5399 34.4581 52.1198 37.7492C50.6996 41.0404 48.7723 43.9032 46.3377 46.3377C43.9032 48.7723 41.0404 50.6996 37.7492 52.1198C34.4581 53.5399 30.9167 54.25 27.125 54.25ZM27.125 46.375C32.5417 46.375 37.1042 44.5208 40.8125 40.8125C44.5208 37.1042 46.375 32.5417 46.375 27.125C46.375 21.7083 44.5208 17.1458 40.8125 13.4375C37.1042 9.72917 32.5417 7.875 27.125 7.875C21.7083 7.875 17.1458 9.72917 13.4375 13.4375C9.72917 17.1458 7.875 21.7083 7.875 27.125C7.875 32.5417 9.72917 37.1042 13.4375 40.8125C17.1458 44.5208 21.7083 46.375 27.125 46.375Z" fill="#005146"/>
</svg>
