<svg width="19" height="26" viewBox="0 0 19 26" fill="none" xmlns="http://www.w3.org/2000/svg">
<path d="M9.33333 25.6667C8.69167 25.6667 8.14236 25.4382 7.68542 24.9813C7.22847 24.5243 7 23.975 7 23.3333C7 22.6917 7.22847 22.1424 7.68542 21.6854C8.14236 21.2285 8.69167 21 9.33333 21C9.975 21 10.5243 21.2285 10.9812 21.6854C11.4382 22.1424 11.6667 22.6917 11.6667 23.3333C11.6667 23.975 11.4382 24.5243 10.9812 24.9813C10.5243 25.4382 9.975 25.6667 9.33333 25.6667ZM2.33333 4.66667C1.69167 4.66667 1.14236 4.43819 0.685417 3.98125C0.228472 3.52431 0 2.975 0 2.33333C0 1.69167 0.228472 1.14236 0.685417 0.685417C1.14236 0.228472 1.69167 0 2.33333 0C2.975 0 3.52431 0.228472 3.98125 0.685417C4.43819 1.14236 4.66667 1.69167 4.66667 2.33333C4.66667 2.975 4.43819 3.52431 3.98125 3.98125C3.52431 4.43819 2.975 4.66667 2.33333 4.66667ZM2.33333 11.6667C1.69167 11.6667 1.14236 11.4382 0.685417 10.9812C0.228472 10.5243 0 9.975 0 9.33333C0 8.69167 0.228472 8.14236 0.685417 7.68542C1.14236 7.22847 1.69167 7 2.33333 7C2.975 7 3.52431 7.22847 3.98125 7.68542C4.43819 8.14236 4.66667 8.69167 4.66667 9.33333C4.66667 9.975 4.43819 10.5243 3.98125 10.9812C3.52431 11.4382 2.975 11.6667 2.33333 11.6667ZM2.33333 18.6667C1.69167 18.6667 1.14236 18.4382 0.685417 17.9813C0.228472 17.5243 0 16.975 0 16.3333C0 15.6917 0.228472 15.1424 0.685417 14.6854C1.14236 14.2285 1.69167 14 2.33333 14C2.975 14 3.52431 14.2285 3.98125 14.6854C4.43819 15.1424 4.66667 15.6917 4.66667 16.3333C4.66667 16.975 4.43819 17.5243 3.98125 17.9813C3.52431 18.4382 2.975 18.6667 2.33333 18.6667ZM16.3333 4.66667C15.6917 4.66667 15.1424 4.43819 14.6854 3.98125C14.2285 3.52431 14 2.975 14 2.33333C14 1.69167 14.2285 1.14236 14.6854 0.685417C15.1424 0.228472 15.6917 0 16.3333 0C16.975 0 17.5243 0.228472 17.9813 0.685417C18.4382 1.14236 18.6667 1.69167 18.6667 2.33333C18.6667 2.975 18.4382 3.52431 17.9813 3.98125C17.5243 4.43819 16.975 4.66667 16.3333 4.66667ZM9.33333 18.6667C8.69167 18.6667 8.14236 18.4382 7.68542 17.9813C7.22847 17.5243 7 16.975 7 16.3333C7 15.6917 7.22847 15.1424 7.68542 14.6854C8.14236 14.2285 8.69167 14 9.33333 14C9.975 14 10.5243 14.2285 10.9812 14.6854C11.4382 15.1424 11.6667 15.6917 11.6667 16.3333C11.6667 16.975 11.4382 17.5243 10.9812 17.9813C10.5243 18.4382 9.975 18.6667 9.33333 18.6667ZM16.3333 18.6667C15.6917 18.6667 15.1424 18.4382 14.6854 17.9813C14.2285 17.5243 14 16.975 14 16.3333C14 15.6917 14.2285 15.1424 14.6854 14.6854C15.1424 14.2285 15.6917 14 16.3333 14C16.975 14 17.5243 14.2285 17.9813 14.6854C18.4382 15.1424 18.6667 15.6917 18.6667 16.3333C18.6667 16.975 18.4382 17.5243 17.9813 17.9813C17.5243 18.4382 16.975 18.6667 16.3333 18.6667ZM16.3333 11.6667C15.6917 11.6667 15.1424 11.4382 14.6854 10.9812C14.2285 10.5243 14 9.975 14 9.33333C14 8.69167 14.2285 8.14236 14.6854 7.68542C15.1424 7.22847 15.6917 7 16.3333 7C16.975 7 17.5243 7.22847 17.9813 7.68542C18.4382 8.14236 18.6667 8.69167 18.6667 9.33333C18.6667 9.975 18.4382 10.5243 17.9813 10.9812C17.5243 11.4382 16.975 11.6667 16.3333 11.6667ZM9.33333 11.6667C8.69167 11.6667 8.14236 11.4382 7.68542 10.9812C7.22847 10.5243 7 9.975 7 9.33333C7 8.69167 7.22847 8.14236 7.68542 7.68542C8.14236 7.22847 8.69167 7 9.33333 7C9.975 7 10.5243 7.22847 10.9812 7.68542C11.4382 8.14236 11.6667 8.69167 11.6667 9.33333C11.6667 9.975 11.4382 10.5243 10.9812 10.9812C10.5243 11.4382 9.975 11.6667 9.33333 11.6667ZM9.33333 4.66667C8.69167 4.66667 8.14236 4.43819 7.68542 3.98125C7.22847 3.52431 7 2.975 7 2.33333C7 1.69167 7.22847 1.14236 7.68542 0.685417C8.14236 0.228472 8.69167 0 9.33333 0C9.975 0 10.5243 0.228472 10.9812 0.685417C11.4382 1.14236 11.6667 1.69167 11.6667 2.33333C11.6667 2.975 11.4382 3.52431 10.9812 3.98125C10.5243 4.43819 9.975 4.66667 9.33333 4.66667Z" fill="#3E4946"/>
</svg>
