<svg width="40" height="29" viewBox="0 0 40 29" fill="none" xmlns="http://www.w3.org/2000/svg">
<path d="M5.85 28.3C4.05 26.4667 2.625 24.3417 1.575 21.925C0.525 19.5083 0 16.9167 0 14.15C0 11.35 0.525 8.74167 1.575 6.325C2.625 3.90833 4.05 1.8 5.85 0L8.7 2.85C7.23333 4.31667 6.08333 6.01667 5.25 7.95C4.41667 9.88333 4 11.95 4 14.15C4 16.3833 4.41667 18.4667 5.25 20.4C6.08333 22.3333 7.23333 24.0167 8.7 25.45L5.85 28.3ZM11.5 22.65C10.4333 21.55 9.58333 20.275 8.95 18.825C8.31667 17.375 8 15.8167 8 14.15C8 12.45 8.31667 10.875 8.95 9.425C9.58333 7.975 10.4333 6.71667 11.5 5.65L14.35 8.5C13.6167 9.23333 13.0417 10.0833 12.625 11.05C12.2083 12.0167 12 13.05 12 14.15C12 15.25 12.2083 16.2833 12.625 17.25C13.0417 18.2167 13.6167 19.0667 14.35 19.8L11.5 22.65ZM20 18.15C18.9 18.15 17.9583 17.7583 17.175 16.975C16.3917 16.1917 16 15.25 16 14.15C16 13.05 16.3917 12.1083 17.175 11.325C17.9583 10.5417 18.9 10.15 20 10.15C21.1 10.15 22.0417 10.5417 22.825 11.325C23.6083 12.1083 24 13.05 24 14.15C24 15.25 23.6083 16.1917 22.825 16.975C22.0417 17.7583 21.1 18.15 20 18.15ZM28.5 22.65L25.65 19.8C26.3833 19.0667 26.9583 18.2167 27.375 17.25C27.7917 16.2833 28 15.25 28 14.15C28 13.05 27.7917 12.0167 27.375 11.05C26.9583 10.0833 26.3833 9.23333 25.65 8.5L28.5 5.65C29.5667 6.71667 30.4167 7.975 31.05 9.425C31.6833 10.875 32 12.45 32 14.15C32 15.8167 31.6833 17.375 31.05 18.825C30.4167 20.275 29.5667 21.55 28.5 22.65ZM34.15 28.3L31.3 25.45C32.7667 23.9833 33.9167 22.2833 34.75 20.35C35.5833 18.4167 36 16.35 36 14.15C36 11.9167 35.5833 9.83333 34.75 7.9C33.9167 5.96667 32.7667 4.28333 31.3 2.85L34.15 0C35.95 1.8 37.375 3.90833 38.425 6.325C39.475 8.74167 40 11.35 40 14.15C40 16.9167 39.475 19.5083 38.425 21.925C37.375 24.3417 35.95 26.4667 34.15 28.3Z" fill="#A0FEE5"/>
</svg>
