<svg width="18" height="20" viewBox="0 0 18 20" fill="none" xmlns="http://www.w3.org/2000/svg">
<path d="M8 20C5.68333 19.4167 3.77083 18.0875 2.2625 16.0125C0.754167 13.9375 0 11.6333 0 9.1V3L8 0L16 3V8.675C15.6833 8.54167 15.3583 8.42083 15.025 8.3125C14.6917 8.20417 14.35 8.125 14 8.075V4.4L8 2.15L2 4.4V9.1C2 9.88333 2.10417 10.6667 2.3125 11.45C2.52083 12.2333 2.8125 12.9792 3.1875 13.6875C3.5625 14.3958 4.01667 15.05 4.55 15.65C5.08333 16.25 5.675 16.75 6.325 17.15C6.50833 17.6833 6.75 18.1917 7.05 18.675C7.35 19.1583 7.69167 19.5917 8.075 19.975C8.05833 19.975 8.04583 19.9792 8.0375 19.9875C8.02917 19.9958 8.01667 20 8 20ZM13 20C11.6167 20 10.4375 19.5125 9.4625 18.5375C8.4875 17.5625 8 16.3833 8 15C8 13.6167 8.4875 12.4375 9.4625 11.4625C10.4375 10.4875 11.6167 10 13 10C14.3833 10 15.5625 10.4875 16.5375 11.4625C17.5125 12.4375 18 13.6167 18 15C18 16.3833 17.5125 17.5625 16.5375 18.5375C15.5625 19.5125 14.3833 20 13 20ZM12.5 18H13.5V15.5H16V14.5H13.5V12H12.5V14.5H10V15.5H12.5V18Z" fill="#00694A"/>
</svg>
