<svg width="24" height="17" viewBox="0 0 24 17" fill="none" xmlns="http://www.w3.org/2000/svg">
<path d="M16.9 16.5L15.5 15.1L17.6 13L15.5 10.9L16.9 9.5L19 11.6L21.1 9.5L22.525 10.9L20.425 13L22.5 15.1L21.1 16.5L19 14.425L16.9 16.5ZM12 17L0 5C1.58333 3.38333 3.4125 2.14583 5.4875 1.2875C7.5625 0.429167 9.73333 0 12 0C14.2667 0 16.4375 0.429167 18.5125 1.2875C20.5875 2.14583 22.4167 3.38333 24 5L20.55 8.425C20.3167 8.19167 20.0833 7.95417 19.85 7.7125C19.6167 7.47083 19.3833 7.23333 19.15 7L21.1 5.05C19.7833 4.05 18.35 3.29167 16.8 2.775C15.25 2.25833 13.65 2 12 2C10.35 2 8.75 2.25833 7.2 2.775C5.65 3.29167 4.21667 4.05 2.9 5.05L12 14.15L13 13.15C13.2333 13.3833 13.4708 13.6208 13.7125 13.8625C13.9542 14.1042 14.1917 14.3417 14.425 14.575L12 17Z" fill="#BA1A1A"/>
</svg>
