<svg width="16" height="16" viewBox="0 0 16 16" fill="none" xmlns="http://www.w3.org/2000/svg">
  <g transform="translate(1.5 4.5)">
    <path d="M3.5 7C2.52778 7 1.70139 6.65972 1.02083 5.97917C0.340278 5.29861 0 4.47222 0 3.5C0 2.52778 0.340278 1.70139 1.02083 1.02083C1.70139 0.340278 2.52778 0 3.5 0C4.14167 0 4.72986 0.160417 5.26458 0.48125C5.79931 0.802083 6.22222 1.225 6.53333 1.75H12.8333V5.25H11.6667V7H8.16667V5.25H6.53333C6.22222 5.775 5.79931 6.19792 5.26458 6.51875C4.72986 6.83958 4.14167 7 3.5 7ZM3.5 5.83333C4.14167 5.83333 4.65694 5.63646 5.04583 5.24271C5.43472 4.84896 5.66806 4.4625 5.74583 4.08333H9.33333V5.83333H10.5V4.08333H11.6667V2.91667H5.74583C5.66806 2.5375 5.43472 2.15104 5.04583 1.75729C4.65694 1.36354 4.14167 1.16667 3.5 1.16667C2.85833 1.16667 2.30903 1.39514 1.85208 1.85208C1.39514 2.30903 1.16667 2.85833 1.16667 3.5C1.16667 4.14167 1.39514 4.69097 1.85208 5.14792C2.30903 5.60486 2.85833 5.83333 3.5 5.83333ZM3.5 4.66667C3.82083 4.66667 4.09549 4.55243 4.32396 4.32396C4.55243 4.09549 4.66667 3.82083 4.66667 3.5C4.66667 3.17917 4.55243 2.90451 4.32396 2.67604C4.09549 2.44757 3.82083 2.33333 3.5 2.33333C3.17917 2.33333 2.90451 2.44757 2.67604 2.67604C2.44757 2.90451 2.33333 3.17917 2.33333 3.5C2.33333 3.82083 2.44757 4.09549 2.67604 4.32396C2.90451 4.55243 3.17917 4.66667 3.5 4.66667Z" fill="#007A5E"/>
  </g>
</svg>
