<svg width="128" height="128" viewBox="0 0 128 128" fill="none" xmlns="http://www.w3.org/2000/svg">
<g clip-path="url(#clip0_2226_1450)">
<path d="M64.0002 120.889C95.3981 120.889 120.889 95.3976 120.889 63.9998C120.889 32.6019 95.3981 7.11089 64.0002 7.11089C32.6024 7.11089 7.11133 32.6019 7.11133 63.9998C7.11133 95.3976 32.6024 120.889 64.0002 120.889V120.889" stroke="#E6E8EB" stroke-width="14.2222"/>
<path d="M47.3684 9.59639C58.6166 6.15769 70.6541 6.29001 81.8239 9.97514C92.9938 13.6603 102.747 20.717 109.74 30.174C116.734 39.631 120.624 51.0233 120.876 62.7826C121.128 74.542 117.728 86.0902 111.146 95.8378C104.563 105.585 95.1208 113.053 84.1188 117.212C73.1169 121.372 61.096 122.019 49.7111 119.065C38.3261 116.111 28.1368 109.7 20.5456 100.715C12.9545 91.7311 8.33477 80.6145 7.32243 68.8961" stroke="#0D8A63" stroke-width="14.2222"/>
<path d="M10.7123 83.9181C6.54825 72.778 5.98026 60.6131 9.08812 49.1335C12.196 37.6539 18.8234 27.4369 28.0387 19.919" stroke="#ED8936" stroke-width="14.2222"/>
<path d="M28 20C33.763 15.4032 40.4272 11.5781 47.5 9.5" stroke="#D32F2F" stroke-width="14.2222"/>
</g>
<defs>
<clipPath id="clip0_2226_1450">
<rect width="128" height="128" fill="white" transform="matrix(0 -1 1 0 0 128)"/>
</clipPath>
</defs>
</svg>
