<svg width="18" height="14" viewBox="0 0 18 14" fill="none" xmlns="http://www.w3.org/2000/svg">
  <path d="M15.75 11.25C15.75 12.075 15.45 12.7875 14.85 13.3875C14.25 13.9875 13.5375 14.2875 12.7125 14.2875H5.2875C4.4625 14.2875 3.75 13.9875 3.15 13.3875C2.55 12.7875 2.25 12.075 2.25 11.25V6.75C2.25 5.925 2.55 5.2125 3.15 4.6125C3.75 4.0125 4.4625 3.7125 5.2875 3.7125H12.7125C13.5375 3.7125 14.25 4.0125 14.85 4.6125C15.45 5.2125 15.75 5.925 15.75 6.75V11.25ZM12.7125 5.2125H5.2875C4.9875 5.2125 4.725 5.325 4.5 5.55C4.275 5.775 4.1625 6.0375 4.1625 6.3375V6.8625L9 10.0125L13.8375 6.8625V6.3375C13.8375 6.0375 13.725 5.775 13.5 5.55C13.275 5.325 13.0125 5.2125 12.7125 5.2125Z" fill="#007A5E"/>
</svg>
