<svg width="14" height="14" viewBox="0 0 14 14" fill="none" xmlns="http://www.w3.org/2000/svg">
  <path d="M4.66667 12.8333C4.025 12.8333 3.47569 12.6049 3.01875 12.1479C2.56181 11.691 2.33333 11.1417 2.33333 10.5V1.16667C2.33333 0.525 2.56181 0.475694 3.01875 0.51875C3.47569 0.561806 4.025 0.333333 4.66667 0.333333H10.5C11.1417 0.333333 11.691 0.561806 12.1479 1.01875C12.6049 1.47569 12.8333 2.025 12.8333 2.66667V10.5C12.8333 11.1417 12.6049 11.691 12.1479 12.1479C11.691 12.6049 11.1417 12.8333 10.5 12.8333H4.66667ZM4.66667 10.5H10.5V2.66667H4.66667V10.5ZM1.16667 13.6667C0.525 13.6667 0.475694 13.4382 0.51875 12.9813C0.561806 12.5243 0.333333 11.975 0.333333 11.3333V3.5H1.16667V11.3333H9V13.6667H1.16667Z" fill="#5E7074"/>
</svg>
