<svg width="16" height="16" viewBox="0 0 16 16" fill="none" xmlns="http://www.w3.org/2000/svg">
  <path d="M13.3333 10.6667C13.3333 11.403 13.0699 12.1089 12.6089 12.6089C12.1089 13.0699 11.403 13.3333 10.6667 13.3333H5.33333C4.59695 13.3333 3.89108 13.0699 3.39108 12.6089C2.89108 12.1089 2.62762 11.403 2.62762 10.6667V5.33333C2.62762 4.59695 2.89108 3.89108 3.39108 3.39108C3.89108 2.89108 4.59695 2.62762 5.33333 2.62762H10.6667C11.403 2.62762 12.1089 2.89108 12.6089 3.39108C13.0699 3.89108 13.3333 4.59695 13.3333 5.33333V10.6667ZM10.6667 4.33333H5.33333C5.11232 4.33333 4.90014 4.42113 4.74386 4.57741C4.58758 4.73369 4.49978 4.94587 4.49978 5.16688V5.55556L8 7.88889L11.5002 5.55556V5.16688C11.5002 4.94587 11.4124 4.73369 11.2561 4.57741C11.0999 4.42113 10.8877 4.33333 10.6667 4.33333Z" fill="#007A5E"/>
</svg>
