<svg width="14" height="14" viewBox="0 0 14 14" fill="none" xmlns="http://www.w3.org/2000/svg">
  <path d="M7 6.35C7.08 6.75 7.12 7.15 7.12 7.55" stroke="#374140" stroke-width="1.1" stroke-linecap="round"/>
  <path d="M5.75 10.35C5.75 7.45 7 6.55 7 6.55C7 6.55 8.25 7.45 8.25 10.35" stroke="#374140" stroke-width="1.1" stroke-linecap="round"/>
  <path d="M5 10.95C5 7.05 7 5.75 7 5.75C7 5.75 9 7.05 9 10.95" stroke="#374140" stroke-width="1.1" stroke-linecap="round"/>
  <path d="M5.85 6.05C6.45 5.45 7.2 5.25 7.95 5.45" stroke="#374140" stroke-width="1.1" stroke-linecap="round"/>
  <path d="M5.05 5.2C5.85 4.4 7 4.05 8.15 4.4" stroke="#374140" stroke-width="1.1" stroke-linecap="round"/>
  <path d="M4.2 4.35C5.25 3.25 7 2.85 8.75 3.25" stroke="#374140" stroke-width="1.1" stroke-linecap="round"/>
  <path d="M3.95 6.05V8.45" stroke="#374140" stroke-width="1.1" stroke-linecap="round"/>
  <path d="M10.05 6.05V8.45" stroke="#374140" stroke-width="1.1" stroke-linecap="round"/>
  <path d="M3.65 5.45C3.65 4.65 4.25 3.85 4.95 3.55" stroke="#374140" stroke-width="1.1" stroke-linecap="round"/>
  <path d="M10.35 5.45C10.35 4.65 9.75 3.85 9.05 3.55" stroke="#374140" stroke-width="1.1" stroke-linecap="round"/>
</svg>
