<svg width="16" height="16" viewBox="0 0 16 16" fill="none" xmlns="http://www.w3.org/2000/svg">
  <path
    d="M10.6667 6.66667V8.66667C10.6667 9.58714 11.4129 10.3333 12.3333 10.3333C13.2538 10.3333 14 9.58714 14 8.66667V8C14 4.68629 11.3137 2 8 2C4.68629 2 2 4.68629 2 8C2 11.3137 4.68629 14 8 14C9.10457 14 10.1491 13.6842 11.0333 13.1333"
    stroke="#005E4E"
    stroke-width="1.25"
    stroke-linecap="round"
    stroke-linejoin="round"
  />
  <path
    d="M8 10.6667C9.47276 10.6667 10.6667 9.47276 10.6667 8C10.6667 6.52724 9.47276 5.33333 8 5.33333C6.52724 5.33333 5.33333 6.52724 5.33333 8C5.33333 9.47276 6.52724 10.6667 8 10.6667Z"
    stroke="#005E4E"
    stroke-width="1.25"
    stroke-linecap="round"
    stroke-linejoin="round"
  />
</svg>
