<svg width="12" height="12" viewBox="0 0 12 12" fill="none" xmlns="http://www.w3.org/2000/svg">
<path d="M2.24583 8.80833C2.74167 8.42917 3.29583 8.13021 3.90833 7.91146C4.52083 7.69271 5.1625 7.58333 5.83333 7.58333C6.50417 7.58333 7.14583 7.69271 7.75833 7.91146C8.37083 8.13021 8.925 8.42917 9.42083 8.80833C9.76111 8.40972 10.026 7.95764 10.2156 7.45208C10.4052 6.94653 10.5 6.40694 10.5 5.83333C10.5 4.54028 10.0455 3.43924 9.13646 2.53021C8.22743 1.62118 7.12639 1.16667 5.83333 1.16667C4.54028 1.16667 3.43924 1.62118 2.53021 2.53021C1.62118 3.43924 1.16667 4.54028 1.16667 5.83333C1.16667 6.40694 1.26146 6.94653 1.45104 7.45208C1.64062 7.95764 1.90556 8.40972 2.24583 8.80833ZM5.83333 6.41667C5.25972 6.41667 4.77604 6.21979 4.38229 5.82604C3.98854 5.43229 3.79167 4.94861 3.79167 4.375C3.79167 3.80139 3.98854 3.31771 4.38229 2.92396C4.77604 2.53021 5.25972 2.33333 5.83333 2.33333C6.40694 2.33333 6.89062 2.53021 7.28438 2.92396C7.67813 3.31771 7.875 3.80139 7.875 4.375C7.875 4.94861 7.67813 5.43229 7.28438 5.82604C6.89062 6.21979 6.40694 6.41667 5.83333 6.41667ZM5.83333 11.6667C5.02639 11.6667 4.26806 11.5135 3.55833 11.2073C2.84861 10.901 2.23125 10.4854 1.70625 9.96042C1.18125 9.43542 0.765625 8.81806 0.459375 8.10833C0.153125 7.39861 0 6.64028 0 5.83333C0 5.02639 0.153125 4.26806 0.459375 3.55833C0.765625 2.84861 1.18125 2.23125 1.70625 1.70625C2.23125 1.18125 2.84861 0.765625 3.55833 0.459375C4.26806 0.153125 5.02639 0 5.83333 0C6.64028 0 7.39861 0.153125 8.10833 0.459375C8.81806 0.765625 9.43542 1.18125 9.96042 1.70625C10.4854 2.23125 10.901 2.84861 11.2073 3.55833C11.5135 4.26806 11.6667 5.02639 11.6667 5.83333C11.6667 6.64028 11.5135 7.39861 11.2073 8.10833C10.901 8.81806 10.4854 9.43542 9.96042 9.96042C9.43542 10.4854 8.81806 10.901 8.10833 11.2073C7.39861 11.5135 6.64028 11.6667 5.83333 11.6667ZM5.83333 10.5C6.34861 10.5 6.83472 10.4247 7.29167 10.274C7.74861 10.1233 8.16667 9.90694 8.54583 9.625C8.16667 9.34306 7.74861 9.12674 7.29167 8.97604C6.83472 8.82535 6.34861 8.75 5.83333 8.75C5.31806 8.75 4.83194 8.82535 4.375 8.97604C3.91806 9.12674 3.5 9.34306 3.12083 9.625C3.5 9.90694 3.91806 10.1233 4.375 10.274C4.83194 10.4247 5.31806 10.5 5.83333 10.5ZM5.83333 5.25C6.08611 5.25 6.29514 5.16736 6.46042 5.00208C6.62569 4.83681 6.70833 4.62778 6.70833 4.375C6.70833 4.12222 6.62569 3.91319 6.46042 3.74792C6.29514 3.58264 6.08611 3.5 5.83333 3.5C5.58056 3.5 5.37153 3.58264 5.20625 3.74792C5.04097 3.91319 4.95833 4.12222 4.95833 4.375C4.95833 4.62778 5.04097 4.83681 5.20625 5.00208C5.37153 5.16736 5.58056 5.25 5.83333 5.25Z" fill="#005E4E"/>
</svg>
