<svg width="15" height="15" viewBox="0 0 15 15" fill="none" xmlns="http://www.w3.org/2000/svg">
<g clip-path="url(#clip0_3007_1071)">
<rect width="15" height="15" fill="white" fill-opacity="0.01"/>
<path d="M8.43759 14.0625H1.87509C1.6357 14.0625 1.4347 13.8821 1.4091 13.6441C1.38989 13.4665 0.937588 9.27337 0.937588 7.96875H1.87509C1.87509 8.98955 2.18043 12.0108 2.29692 13.125H7.8622C7.79859 12.7918 7.73446 12.4031 7.73446 12.1875H8.67196C8.67196 12.3953 8.80242 13.0751 8.89537 13.4921C8.92603 13.6308 8.89218 13.776 8.80335 13.8872C8.7141 13.998 8.57995 14.0625 8.43759 14.0625ZM13.5938 11.25H7.03134C6.7926 11.25 6.59189 11.0706 6.56554 10.833C6.5557 10.746 6.32821 8.6925 6.32821 7.96875H7.26571C7.26571 8.454 7.38543 9.66797 7.4527 10.3125H13.0807L12.697 6.09375H9.84379V5.15625H13.125C13.3677 5.15625 13.57 5.34117 13.592 5.58267L14.0607 10.7387C14.0726 10.8701 14.0287 11.0001 13.9399 11.0976C13.851 11.1946 13.7257 11.25 13.5938 11.25ZM8.43759 7.03125H1.87509C1.6327 7.03125 1.43015 6.84633 1.40817 6.60483L0.939416 1.44858C0.92751 1.31742 0.971479 1.18744 1.06026 1.09017C1.14904 0.992906 1.27471 0.9375 1.40634 0.9375H7.96884C8.21146 0.9375 8.41378 1.12242 8.43576 1.36392L8.90451 6.52017C8.91642 6.65133 8.87245 6.78131 8.78367 6.87858C8.69489 6.97584 8.56945 7.03125 8.43759 7.03125ZM2.3031 6.09375H7.92421L7.54082 1.875H1.91971L2.3031 6.09375Z" fill="white"/>
</g>
<defs>
<clipPath id="clip0_3007_1071">
<rect width="15" height="15" fill="white"/>
</clipPath>
</defs>
</svg>
