<svg width="20" height="20" viewBox="0 0 20 20" fill="none" xmlns="http://www.w3.org/2000/svg">
<path d="M14.5824 15.8327H5.8324C5.25026 15.8321 4.67471 15.7096 4.14284 15.4729C3.61097 15.2363 3.13459 14.8908 2.7444 14.4588C2.35422 14.0268 2.05889 13.5178 1.87746 12.9647C1.69602 12.4115 1.63251 11.8265 1.69102 11.2473C1.74952 10.6681 1.92874 10.1076 2.21713 9.60192C2.50551 9.09623 2.89666 8.65659 3.36536 8.31132C3.83406 7.96606 4.3699 7.72284 4.93835 7.59735C5.5068 7.47185 6.09524 7.46686 6.66573 7.58271C7.31462 6.50093 8.2967 5.65865 9.46471 5.18216C10.6327 4.70567 11.9237 4.62064 13.1441 4.93982C14.3645 5.25901 15.4486 5.96521 16.2338 6.95253C17.0189 7.93985 17.4629 9.15509 17.4991 10.416C18.2174 10.8028 18.7526 11.4591 18.987 12.2405C19.2214 13.0219 19.1358 13.8644 18.7491 14.5827C18.3623 15.301 17.706 15.8362 16.9246 16.0707C16.1432 16.3051 15.3007 16.2195 14.5824 15.8327Z" stroke="#0F9F8F" stroke-width="1.66667" stroke-linecap="round" stroke-linejoin="round"/>
</svg>
