<svg width="33" height="33" viewBox="0 0 33 33" fill="none" xmlns="http://www.w3.org/2000/svg">
<path d="M22 28.875V26.125C22 24.6663 21.4205 23.2674 20.3891 22.2359C19.3576 21.2045 17.9587 20.625 16.5 20.625H8.25C6.79131 20.625 5.39236 21.2045 4.36091 22.2359C3.32946 23.2674 2.75 24.6663 2.75 26.125V28.875" stroke="black" stroke-width="1.66667" stroke-linecap="round" stroke-linejoin="round"/>
<path d="M12.375 15.125C15.4126 15.125 17.875 12.6626 17.875 9.625C17.875 6.58743 15.4126 4.125 12.375 4.125C9.33743 4.125 6.875 6.58743 6.875 9.625C6.875 12.6626 9.33743 15.125 12.375 15.125Z" stroke="black" stroke-width="1.66667" stroke-linecap="round" stroke-linejoin="round"/>
<path d="M30.25 28.8759V26.1259C30.2491 24.9073 29.8435 23.7235 29.0969 22.7604C28.3503 21.7972 27.3049 21.1093 26.125 20.8047" stroke="black" stroke-width="1.66667" stroke-linecap="round" stroke-linejoin="round"/>
</svg>
