<svg width="20" height="20" viewBox="0 0 20 20" fill="none" xmlns="http://www.w3.org/2000/svg">
<path d="M12.4993 3.33398H3.33268C2.41221 3.33398 1.66602 4.08018 1.66602 5.00065V12.5007C1.66602 13.4211 2.41221 14.1673 3.33268 14.1673H12.4993C13.4198 14.1673 14.166 13.4211 14.166 12.5007V5.00065C14.166 4.08018 13.4198 3.33398 12.4993 3.33398Z" stroke="#4F46E5" stroke-width="1.66667" stroke-linecap="round" stroke-linejoin="round"/>
<path d="M6.66602 17.5H11.666" stroke="#4F46E5" stroke-width="1.66667" stroke-linecap="round" stroke-linejoin="round"/>
<path d="M10 14.166V17.4993" stroke="#4F46E5" stroke-width="1.66667" stroke-linecap="round" stroke-linejoin="round"/>
<path d="M17.5 6.66602H15.8333C15.3731 6.66602 15 7.03911 15 7.49935V13.3327C15 13.7929 15.3731 14.166 15.8333 14.166H17.5C17.9602 14.166 18.3333 13.7929 18.3333 13.3327V7.49935C18.3333 7.03911 17.9602 6.66602 17.5 6.66602Z" stroke="#4F46E5" stroke-width="1.66667" stroke-linecap="round" stroke-linejoin="round"/>
</svg>
