<svg width="16" height="16" viewBox="0 0 16 16" fill="none" xmlns="http://www.w3.org/2000/svg">
<path d="M14.0002 1.33398L12.6668 2.66732M12.6668 2.66732L14.6668 4.66732L12.3335 7.00065L10.3335 5.00065M7.59352 7.74065L10.3335 5.00065L12.6668 2.66732M7.59352 7.74065C7.93774 8.08029 8.21138 8.48468 8.39869 8.93051C8.58599 9.37635 8.68325 9.85483 8.68487 10.3384C8.68649 10.822 8.59243 11.3011 8.40812 11.7482C8.22381 12.1953 7.95289 12.6015 7.61095 12.9434C7.269 13.2854 6.8628 13.5563 6.41572 13.7406C5.96864 13.9249 5.48952 14.019 5.00594 14.0173C4.52236 14.0157 4.04388 13.9185 3.59804 13.7312C3.15221 13.5439 2.74783 13.2702 2.40818 12.926C1.74027 12.2344 1.37069 11.3082 1.37904 10.3468C1.3874 9.38546 1.77302 8.46581 2.45285 7.78598C3.13268 7.10615 4.05232 6.72053 5.01371 6.71218C5.9751 6.70383 6.90131 7.0734 7.59285 7.74132L7.59352 7.74065Z" stroke="white" stroke-width="1.6" stroke-linecap="round" stroke-linejoin="round"/>
</svg>
