<svg xmlns="http://www.w3.org/2000/svg" width="19" height="19" viewBox="0 0 19 19" fill="none">
  <path d="M6.017 2.771 7.18 5.39c.17.383.073.832-.24 1.11l-1.09.969c.723 1.55 1.923 2.754 3.683 3.694l1.016-1.009c.295-.293.737-.377 1.119-.212l2.553 1.104c.469.203.714.72.574 1.212l-.63 2.213c-.126.442-.532.746-.992.746C7.993 15.217 3.783 11.007 3.783 5.827c0-.46.304-.866.746-.992l2.26-.644c.499-.142 1.02.108 1.228.58Z" stroke="#DEE7FF" stroke-opacity="0.68" stroke-width="1.58333" stroke-linecap="round" stroke-linejoin="round"/>
</svg>
