<svg width="20" height="17" viewBox="0 0 20 17" fill="none" xmlns="http://www.w3.org/2000/svg">
<g clip-path="url(#clip0_1666_2007)">
<path d="M14.1663 7.08361H19.1663V2.83361M19.1663 7.08361L15.2997 3.99528C14.4041 3.23362 13.296 2.67722 12.079 2.37799C10.862 2.07877 9.5756 2.04648 8.33991 2.28413C7.10423 2.52178 5.95951 3.02163 5.01256 3.73703C4.06562 4.45244 3.34731 5.36008 2.92467 6.37528M5.83301 9.91694H0.833008V14.1669M0.833008 9.91694L4.69967 13.0053C5.5953 13.7669 6.70332 14.3233 7.92035 14.6226C9.13738 14.9218 10.4238 14.9541 11.6594 14.7164C12.8951 14.4788 14.0398 13.9789 14.9868 13.2635C15.9337 12.5481 16.652 11.6405 17.0747 10.6253" stroke="#1E1E1E" stroke-width="3" stroke-linecap="round" stroke-linejoin="round"/>
</g>
<defs>
<clipPath id="clip0_1666_2007">
<rect width="20" height="17" fill="white"/>
</clipPath>
</defs>
</svg>
