<svg width="26" height="23" viewBox="0 0 26 23" fill="none" xmlns="http://www.w3.org/2000/svg">
<path d="M13 8.625V12.4583" stroke="#FF4D4D" stroke-width="3.3" stroke-linecap="round" stroke-linejoin="round"/>
<path d="M13 16.291H13.0108" stroke="#FF4D4D" stroke-width="3.3" stroke-linecap="round" stroke-linejoin="round"/>
<path d="M11.158 3.73708L1.94962 17.2496C1.76086 17.5387 1.66074 17.8664 1.6592 18.2003C1.65765 18.5342 1.75472 18.8626 1.9408 19.1531C2.12687 19.4436 2.3955 19.686 2.72007 19.8564C3.04465 20.0268 3.41391 20.1193 3.79128 20.1246H22.208C22.5853 20.1193 22.9546 20.0268 23.2792 19.8564C23.6037 19.686 23.8724 19.4436 24.0584 19.1531C24.2445 18.8626 24.3416 18.5342 24.34 18.2003C24.3385 17.8664 24.2384 17.5387 24.0496 17.2496L14.8413 3.73708C14.647 3.45972 14.3758 3.23083 14.0535 3.07211C13.7312 2.91339 13.3685 2.83008 12.9996 2.83008C12.6307 2.83008 12.268 2.91339 11.9457 3.07211C11.6234 3.23083 11.3523 3.45972 11.158 3.73708Z" stroke="#FF4D4D" stroke-width="3.3" stroke-linecap="round" stroke-linejoin="round"/>
</svg>
