<svg width="14" height="15" viewBox="0 0 14 15" fill="none" xmlns="http://www.w3.org/2000/svg">
<path d="M1.5 15C1.0875 15 0.734375 14.8531 0.440625 14.5594C0.146875 14.2656 0 13.9125 0 13.5V3C0 2.5875 0.146875 2.23438 0.440625 1.94062C0.734375 1.64687 1.0875 1.5 1.5 1.5H4.65C4.825 1.05 5.1 0.6875 5.475 0.4125C5.85 0.1375 6.275 0 6.75 0C7.225 0 7.65 0.1375 8.025 0.4125C8.4 0.6875 8.675 1.05 8.85 1.5H12C12.4125 1.5 12.7656 1.64687 13.0594 1.94062C13.3531 2.23438 13.5 2.5875 13.5 3V13.5C13.5 13.9125 13.3531 14.2656 13.0594 14.5594C12.7656 14.8531 12.4125 15 12 15H1.5ZM6.75 2.4375C6.9125 2.4375 7.04688 2.38438 7.15312 2.27813C7.25937 2.17188 7.3125 2.0375 7.3125 1.875C7.3125 1.7125 7.25937 1.57812 7.15312 1.47187C7.04688 1.36562 6.9125 1.3125 6.75 1.3125C6.5875 1.3125 6.45312 1.36562 6.34688 1.47187C6.24063 1.57812 6.1875 1.7125 6.1875 1.875C6.1875 2.0375 6.24063 2.17188 6.34688 2.27813C6.45312 2.38438 6.5875 2.4375 6.75 2.4375ZM1.5 12.6375C2.175 11.975 2.95938 11.4531 3.85313 11.0719C4.74688 10.6906 5.7125 10.5 6.75 10.5C7.7875 10.5 8.75313 10.6906 9.64688 11.0719C10.5406 11.4531 11.325 11.975 12 12.6375V3H1.5V12.6375ZM6.75 9C7.475 9 8.09375 8.74375 8.60625 8.23125C9.11875 7.71875 9.375 7.1 9.375 6.375C9.375 5.65 9.11875 5.03125 8.60625 4.51875C8.09375 4.00625 7.475 3.75 6.75 3.75C6.025 3.75 5.40625 4.00625 4.89375 4.51875C4.38125 5.03125 4.125 5.65 4.125 6.375C4.125 7.1 4.38125 7.71875 4.89375 8.23125C5.40625 8.74375 6.025 9 6.75 9ZM3 13.5H10.5C10.5 13.4625 10.5 13.4312 10.5 13.4062C10.5 13.3813 10.5 13.35 10.5 13.3125C9.975 12.875 9.39375 12.5469 8.75625 12.3281C8.11875 12.1094 7.45 12 6.75 12C6.05 12 5.38125 12.1094 4.74375 12.3281C4.10625 12.5469 3.525 12.875 3 13.3125C3 13.35 3 13.3813 3 13.4062C3 13.4312 3 13.4625 3 13.5ZM6.75 7.5C6.4375 7.5 6.17188 7.39062 5.95312 7.17188C5.73438 6.95312 5.625 6.6875 5.625 6.375C5.625 6.0625 5.73438 5.79688 5.95312 5.57812C6.17188 5.35938 6.4375 5.25 6.75 5.25C7.0625 5.25 7.32812 5.35938 7.54688 5.57812C7.76562 5.79688 7.875 6.0625 7.875 6.375C7.875 6.6875 7.76562 6.95312 7.54688 7.17188C7.32812 7.39062 7.0625 7.5 6.75 7.5Z" fill="#586377"/>
</svg>
