<svg width="95" height="81" viewBox="0 0 95 81" fill="none" xmlns="http://www.w3.org/2000/svg">
<rect x="2.5" y="31.5" width="90" height="47" rx="23.5" stroke="#003534" stroke-width="5"/>
<mask id="path-2-inside-1_696_1375" fill="white">
<path d="M30 28C30 12.536 42.536 0 58 0C73.464 0 86 12.536 86 28V51H30V28Z"/>
</mask>
<path d="M30 28C30 12.536 42.536 0 58 0C73.464 0 86 12.536 86 28V51H30V28Z" fill="#EAF8EF"/>
<path d="M25 28C25 9.7746 39.7746 -5 58 -5C76.2254 -5 91 9.7746 91 28H81C81 15.2975 70.7025 5 58 5C45.2975 5 35 15.2975 35 28H25ZM35 28M86 51H30H86M25 51V28C25 9.7746 39.7746 -5 58 -5V5C45.2975 5 35 15.2975 35 28V51H25ZM58 -5C76.2254 -5 91 9.7746 91 28V51H81V28C81 15.2975 70.7025 5 58 5V-5Z" fill="#003534" mask="url(#path-2-inside-1_696_1375)"/>
<mask id="path-4-inside-2_696_1375" fill="white">
<path d="M2 38C2 25.8497 11.8497 16 24 16C36.1503 16 46 25.8497 46 38V55H2V38Z"/>
</mask>
<path d="M2 38C2 25.8497 11.8497 16 24 16C36.1503 16 46 25.8497 46 38V55H2V38Z" fill="#EAF8EF"/>
<path d="M-3 38C-3 23.0883 9.08831 11 24 11C38.9117 11 51 23.0883 51 38H41C41 28.6112 33.3888 21 24 21C14.6112 21 7 28.6112 7 38H-3ZM7 38M46 55H2H46M-3 55V38C-3 23.0883 9.08831 11 24 11V21C14.6112 21 7 28.6112 7 38V55H-3ZM24 11C38.9117 11 51 23.0883 51 38V55H41V38C41 28.6112 33.3888 21 24 21V11Z" fill="#003534" mask="url(#path-4-inside-2_696_1375)"/>
</svg>
