<svg width="112" height="70" viewBox="0 0 112 70" fill="none" xmlns="http://www.w3.org/2000/svg">
<g opacity="0.52">
<rect width="7" height="7" rx="3.5" fill="#009BA5"/>
<rect x="21" width="7" height="7" rx="3.5" fill="#009BA5"/>
<rect x="42" width="7" height="7" rx="3.5" fill="#009BA5"/>
<rect x="63" width="7" height="7" rx="3.5" fill="#009BA5"/>
<rect x="84" width="7" height="7" rx="3.5" fill="#009BA5"/>
<rect x="105" width="7" height="7" rx="3.5" fill="#009BA5"/>
<rect y="21" width="7" height="7" rx="3.5" fill="#009BA5"/>
<rect x="21" y="21" width="7" height="7" rx="3.5" fill="#009BA5"/>
<rect x="42" y="21" width="7" height="7" rx="3.5" fill="#009BA5"/>
<rect x="63" y="21" width="7" height="7" rx="3.5" fill="#009BA5"/>
<rect x="84" y="21" width="7" height="7" rx="3.5" fill="#009BA5"/>
<rect x="105" y="21" width="7" height="7" rx="3.5" fill="#009BA5"/>
<rect y="42" width="7" height="7" rx="3.5" fill="#009BA5"/>
<rect x="21" y="42" width="7" height="7" rx="3.5" fill="#009BA5"/>
<rect x="42" y="42" width="7" height="7" rx="3.5" fill="#009BA5"/>
<rect x="63" y="42" width="7" height="7" rx="3.5" fill="#009BA5"/>
<rect x="84" y="42" width="7" height="7" rx="3.5" fill="#009BA5"/>
<rect x="105" y="42" width="7" height="7" rx="3.5" fill="#009BA5"/>
<rect y="63" width="7" height="7" rx="3.5" fill="#009BA5"/>
<rect x="21" y="63" width="7" height="7" rx="3.5" fill="#009BA5"/>
<rect x="42" y="63" width="7" height="7" rx="3.5" fill="#009BA5"/>
<rect x="63" y="63" width="7" height="7" rx="3.5" fill="#009BA5"/>
<rect x="84" y="63" width="7" height="7" rx="3.5" fill="#009BA5"/>
<rect x="105" y="63" width="7" height="7" rx="3.5" fill="#009BA5"/>
</g>
</svg>
