<svg width="23" height="28" viewBox="0 0 23 28" fill="none" xmlns="http://www.w3.org/2000/svg">
<path d="M11.4746 23.5605C16.7558 23.5605 21.0371 19.2793 21.0371 13.998C21.0371 8.71682 16.7558 4.43555 11.4746 4.43555C6.19339 4.43555 1.91211 8.71682 1.91211 13.998C1.91211 19.2793 6.19339 23.5605 11.4746 23.5605Z" stroke="#007A5E" stroke-width="1.9125" stroke-linecap="round" stroke-linejoin="round"/>
<path d="M8.69247 11.1293C8.68921 10.7096 8.77809 10.2943 8.95284 9.91264C9.12759 9.53103 9.38395 9.19241 9.70384 8.92067C10.0237 8.64893 10.3993 8.45069 10.8042 8.33994C11.209 8.2292 11.6333 8.20864 12.0469 8.27971C12.4606 8.35079 12.8536 8.51177 13.1983 8.7513C13.5429 8.99083 13.8309 9.30307 14.0417 9.666C14.2525 10.0289 14.3812 10.4337 14.4185 10.8518C14.4559 11.2698 14.401 11.691 14.2578 12.0855C14.2578 13.998 11.3891 13.998 11.3891 15.9105" stroke="#007A5E" stroke-width="1.9125" stroke-linecap="round" stroke-linejoin="round"/>
<path d="M11.4746 18.7793H11.4846" stroke="#007A5E" stroke-width="1.9125" stroke-linecap="round" stroke-linejoin="round"/>
</svg>
