<svg width="24" height="24" viewBox="0 0 24 24" fill="none" xmlns="http://www.w3.org/2000/svg">
<path d="M17 10H7C5.89543 10 5 10.8954 5 12V18C5 19.1046 5.89543 20 7 20H17C18.1046 20 19 19.1046 19 18V12C19 10.8954 18.1046 10 17 10Z" stroke="#007A5E" stroke-width="2" stroke-linecap="round" stroke-linejoin="round"/>
<path d="M8 10V7C8 5.93913 8.42143 4.92172 9.17157 4.17157C9.92172 3.42143 10.9391 3 12 3C13.0609 3 14.0783 3.42143 14.8284 4.17157C15.5786 4.92172 16 5.93913 16 7V10" stroke="#007A5E" stroke-width="2" stroke-linecap="round" stroke-linejoin="round"/>
</svg>
