<svg width="34" height="34" viewBox="0 0 34 34" fill="none" xmlns="http://www.w3.org/2000/svg">
<path d="M17.0003 31.1666C17.0003 31.1666 28.3337 25.4999 28.3337 16.9999V7.08325L17.0003 2.83325L5.66699 7.08325V16.9999C5.66699 25.4999 17.0003 31.1666 17.0003 31.1666Z" stroke="#007A5E" stroke-width="2.83333" stroke-linecap="round" stroke-linejoin="round"/>
<path d="M19.8333 14.1667H14.1667C13.3843 14.1667 12.75 14.801 12.75 15.5834V19.8334C12.75 20.6158 13.3843 21.2501 14.1667 21.2501H19.8333C20.6157 21.2501 21.25 20.6158 21.25 19.8334V15.5834C21.25 14.801 20.6157 14.1667 19.8333 14.1667Z" stroke="#007A5E" stroke-width="2.83333" stroke-linecap="round" stroke-linejoin="round"/>
<path d="M14.167 14.1667V11.3333C14.167 10.5819 14.4655 9.86122 14.9969 9.32986C15.5282 8.79851 16.2489 8.5 17.0003 8.5C17.7518 8.5 18.4724 8.79851 19.0038 9.32986C19.5351 9.86122 19.8337 10.5819 19.8337 11.3333V14.1667" stroke="#007A5E" stroke-width="2.83333" stroke-linecap="round" stroke-linejoin="round"/>
</svg>
