<svg width="32" height="32" viewBox="0 0 32 32" fill="none" xmlns="http://www.w3.org/2000/svg">
<g clip-path="url(#clip0_1802_1337)">
<path d="M26.6674 22.1067C28.069 21.4928 29.2168 20.4154 29.9181 19.0554C30.6194 17.6954 30.8315 16.1355 30.5188 14.6376C30.2061 13.1397 29.3876 11.795 28.2008 10.8291C27.0139 9.8633 25.5309 9.33516 24.0007 9.33336H22.3207C21.8981 7.69672 21.0925 6.18396 19.9704 4.91976C18.8484 3.65556 17.4419 2.67613 15.8671 2.06219C14.2922 1.44825 12.5939 1.21738 10.9123 1.38862C9.23064 1.55985 7.61378 2.12829 6.19496 3.04707C4.77613 3.96585 3.59598 5.20867 2.75177 6.67309C1.90756 8.1375 1.42346 9.78159 1.33938 11.4698C1.2553 13.1581 1.57364 14.8421 2.26817 16.3832C2.9627 17.9242 4.01352 19.2781 5.33403 20.3334" stroke="#007A5E" stroke-width="2.66667" stroke-linecap="round" stroke-linejoin="round"/>
<path d="M10.666 22.6667H21.3327" stroke="#007A5E" stroke-width="2.66667" stroke-linecap="round" stroke-linejoin="round"/>
</g>
<defs>
<clipPath id="clip0_1802_1337">
<rect width="32" height="32" fill="white"/>
</clipPath>
</defs>
</svg>
