<svg width="32" height="32" viewBox="0 0 32 32" fill="none" xmlns="http://www.w3.org/2000/svg">
<path d="M22.667 13.3333H9.33366C7.8609 13.3333 6.66699 14.5272 6.66699 15.9999V23.9999C6.66699 25.4727 7.8609 26.6666 9.33366 26.6666H22.667C24.1398 26.6666 25.3337 25.4727 25.3337 23.9999V15.9999C25.3337 14.5272 24.1398 13.3333 22.667 13.3333Z" stroke="#405356" stroke-width="2.66667" stroke-linecap="round" stroke-linejoin="round"/>
<path d="M10.667 13.3333V9.33333C10.667 7.91885 11.2289 6.56229 12.2291 5.5621C13.2293 4.5619 14.5858 4 16.0003 4C17.4148 4 18.7714 4.5619 19.7716 5.5621C20.7718 6.56229 21.3337 7.91885 21.3337 9.33333V13.3333" stroke="#405356" stroke-width="2.66667" stroke-linecap="round" stroke-linejoin="round"/>
</svg>
