<svg width="32" height="32" viewBox="0 0 32 32" fill="none" xmlns="http://www.w3.org/2000/svg">
<path d="M24.0007 14.6667H8.00065C6.52789 14.6667 5.33398 15.8607 5.33398 17.3334V25.3334C5.33398 26.8062 6.52789 28.0001 8.00065 28.0001H24.0007C25.4734 28.0001 26.6673 26.8062 26.6673 25.3334V17.3334C26.6673 15.8607 25.4734 14.6667 24.0007 14.6667Z" stroke="#007A5E" stroke-width="2.66667" stroke-linecap="round" stroke-linejoin="round"/>
<path d="M10.666 14.6667V9.33333C10.666 7.91885 11.2279 6.56229 12.2281 5.5621C13.2283 4.5619 14.5849 4 15.9993 4C17.4138 4 18.7704 4.5619 19.7706 5.5621C20.7708 6.56229 21.3327 7.91885 21.3327 9.33333V14.6667" stroke="#007A5E" stroke-width="2.66667" stroke-linecap="round" stroke-linejoin="round"/>
</svg>
