<svg width="32" height="32" viewBox="0 0 32 32" fill="none" xmlns="http://www.w3.org/2000/svg">
<path d="M22.666 14.6667H9.33268C7.85992 14.6667 6.66602 15.8607 6.66602 17.3334V25.3334C6.66602 26.8062 7.85992 28.0001 9.33268 28.0001H22.666C24.1388 28.0001 25.3327 26.8062 25.3327 25.3334V17.3334C25.3327 15.8607 24.1388 14.6667 22.666 14.6667Z" stroke="#405356" stroke-width="2.66667" stroke-linecap="round" stroke-linejoin="round"/>
<path d="M10.666 14.6667V9.33333C10.666 7.91885 11.2279 6.56229 12.2281 5.5621C13.2283 4.5619 14.5849 4 15.9993 4C17.4138 4 18.7704 4.5619 19.7706 5.5621C20.7708 6.56229 21.3327 7.91885 21.3327 9.33333V14.6667" stroke="#405356" stroke-width="2.66667" stroke-linecap="round" stroke-linejoin="round"/>
</svg>
