<svg width="34" height="34" viewBox="0 0 34 34" fill="none" xmlns="http://www.w3.org/2000/svg">
<path d="M24.083 14.1667H9.91634C8.35153 14.1667 7.08301 15.4353 7.08301 17.0001V25.5001C7.08301 27.0649 8.35153 28.3334 9.91634 28.3334H24.083C25.6478 28.3334 26.9163 27.0649 26.9163 25.5001V17.0001C26.9163 15.4353 25.6478 14.1667 24.083 14.1667Z" stroke="#007A5E" stroke-width="2.83333" stroke-linecap="round" stroke-linejoin="round"/>
<path d="M11.333 14.1667V9.91667C11.333 8.41377 11.93 6.97243 12.9927 5.90973C14.0554 4.84702 15.4968 4.25 16.9997 4.25C18.5026 4.25 19.9439 4.84702 21.0066 5.90973C22.0693 6.97243 22.6663 8.41377 22.6663 9.91667V14.1667" stroke="#007A5E" stroke-width="2.83333" stroke-linecap="round" stroke-linejoin="round"/>
</svg>
