<svg width="36" height="36" viewBox="0 0 36 36" fill="none" xmlns="http://www.w3.org/2000/svg">
<path d="M18 13.5V19.5" stroke="#FBBF24" stroke-width="3.3" stroke-linecap="round" stroke-linejoin="round"/>
<path d="M18 25.5H18.015" stroke="#FBBF24" stroke-width="3.3" stroke-linecap="round" stroke-linejoin="round"/>
<path d="M15.451 5.85007L2.70097 27.0001C2.43961 27.4526 2.301 27.9656 2.29885 28.4882C2.29671 29.0107 2.43112 29.5248 2.68876 29.9795C2.94641 30.4342 3.31835 30.8136 3.76776 31.0803C4.21717 31.3471 4.72845 31.4917 5.25097 31.5001H30.751C31.2735 31.4917 31.7848 31.3471 32.2342 31.0803C32.6836 30.8136 33.0555 30.4342 33.3132 29.9795C33.5708 29.5248 33.7052 29.0107 33.7031 28.4882C33.7009 27.9656 33.5623 27.4526 33.301 27.0001L20.551 5.85007C20.2819 5.41594 19.9065 5.05769 19.4602 4.80925C19.014 4.56081 18.5117 4.43042 18.001 4.43042C17.4902 4.43042 16.9879 4.56081 16.5417 4.80925C16.0955 5.05769 15.72 5.41594 15.451 5.85007Z" stroke="#FBBF24" stroke-width="3.3" stroke-linecap="round" stroke-linejoin="round"/>
</svg>
