<svg width="38" height="38" viewBox="0 0 38 38" fill="none" xmlns="http://www.w3.org/2000/svg">
<path d="M19.0003 34.8334C27.7448 34.8334 34.8337 27.7445 34.8337 19C34.8337 10.2555 27.7448 3.16669 19.0003 3.16669C10.2558 3.16669 3.16699 10.2555 3.16699 19C3.16699 27.7445 10.2558 34.8334 19.0003 34.8334Z" stroke="#007A5E" stroke-width="1.58333" stroke-linecap="round" stroke-linejoin="round"/>
<path d="M14.4087 14.25C14.3912 13.5481 14.5296 12.8512 14.8137 12.2092C15.0979 11.5672 15.5209 10.9962 16.0521 10.5373C16.5834 10.0783 17.2098 9.74287 17.8863 9.55502C18.5627 9.36718 19.2724 9.33162 19.9643 9.4509C20.6561 9.57018 21.3129 9.84135 21.8874 10.2449C22.4619 10.6484 22.9398 11.1743 23.2868 11.7846C23.6337 12.395 23.841 13.0746 23.8938 13.7747C23.9466 14.4748 23.8435 15.1778 23.592 15.8333C22.3254 17.7333 19.0004 18.525 19.0004 20.5833" stroke="#007A5E" stroke-width="1.58333" stroke-linecap="round" stroke-linejoin="round"/>
<path d="M19 26.9167H19.015" stroke="#007A5E" stroke-width="1.58333" stroke-linecap="round" stroke-linejoin="round"/>
</svg>
