<svg width="20" height="20" viewBox="0 0 20 20" fill="none" xmlns="http://www.w3.org/2000/svg">
<path d="M13.3337 17.5V15.8333C13.3337 14.9493 12.9825 14.1014 12.3573 13.4763C11.7322 12.8512 10.8844 12.5 10.0003 12.5C9.11627 12.5 8.26842 12.8512 7.6433 13.4763C7.01818 14.1014 6.66699 14.9493 6.66699 15.8333V17.5" stroke="#003534" stroke-width="1.66667" stroke-linecap="round" stroke-linejoin="round"/>
<path d="M10.0003 9.16667C11.8413 9.16667 13.3337 7.67428 13.3337 5.83333C13.3337 3.99238 11.8413 2.5 10.0003 2.5C8.15938 2.5 6.66699 3.99238 6.66699 5.83333C6.66699 7.67428 8.15938 9.16667 10.0003 9.16667Z" stroke="#003534" stroke-width="1.66667" stroke-linecap="round" stroke-linejoin="round"/>
<path d="M16.667 6.66669V11.6667" stroke="#003534" stroke-width="1.66667" stroke-linecap="round" stroke-linejoin="round"/>
<path d="M19.167 9.16669H14.167" stroke="#003534" stroke-width="1.66667" stroke-linecap="round" stroke-linejoin="round"/>
</svg>
